<mxfile host="65bd71144e" scale="2" border="30">
    <diagram id="0QhtwqMjpmc_AO-MrRb4" name="第 1 页">
        <mxGraphModel dx="1036" dy="595" grid="0" gridSize="10" guides="1" tooltips="1" connect="1" arrows="1" fold="1" page="1" pageScale="1" pageWidth="1654" pageHeight="2336" background="#FFFFFF" math="0" shadow="0">
            <root>
                <mxCell id="0"/>
                <mxCell id="1" parent="0"/>
                <mxCell id="1135" value="" style="rounded=0;whiteSpace=wrap;html=1;fontFamily=Tahoma;fontSize=10;fontColor=#FFFFFF;strokeWidth=2;strokeColor=none;fillColor=#EDF2F4;" vertex="1" parent="1">
                    <mxGeometry x="331" y="570" width="458" height="83" as="geometry"/>
                </mxCell>
                <mxCell id="1131" value="&lt;b style=&quot;color: rgb(52 , 82 , 83) ; font-family: &amp;#34;tahoma&amp;#34;&quot;&gt;Reduce Side Task &lt;i&gt;n&lt;/i&gt;&lt;/b&gt;" style="whiteSpace=wrap;html=1;dashed=1;fontFamily=Verdana;fontColor=#FFFFFF;strokeColor=none;fillColor=#EDF2F4;rounded=1;" parent="1" vertex="1">
                    <mxGeometry x="668" y="694" width="150" height="40" as="geometry"/>
                </mxCell>
                <mxCell id="1130" value="&lt;font color=&quot;#345253&quot; face=&quot;tahoma&quot;&gt;&lt;b&gt;Reduce Side Task 01&lt;/b&gt;&lt;/font&gt;" style="whiteSpace=wrap;html=1;dashed=1;fontFamily=Verdana;fontColor=#FFFFFF;strokeColor=none;fillColor=#EDF2F4;rounded=1;" parent="1" vertex="1">
                    <mxGeometry x="302.5" y="694" width="150" height="40" as="geometry"/>
                </mxCell>
                <mxCell id="1100" value="" style="rounded=1;whiteSpace=wrap;html=1;sketch=0;fontFamily=Tahoma;fontSize=11;fontColor=#345253;strokeWidth=1;fillColor=none;strokeColor=#345253;dashed=1;arcSize=8;" parent="1" vertex="1">
                    <mxGeometry x="617" y="245" width="210" height="180" as="geometry"/>
                </mxCell>
                <mxCell id="1027" value="&lt;font color=&quot;#345253&quot; face=&quot;tahoma&quot;&gt;&lt;b&gt;Map Side Task&lt;/b&gt;&lt;/font&gt;" style="whiteSpace=wrap;html=1;dashed=1;fontFamily=Verdana;fontColor=#FFFFFF;strokeColor=none;fillColor=#EDF2F4;rounded=1;" parent="1" vertex="1">
                    <mxGeometry x="485" y="180" width="150" height="40" as="geometry"/>
                </mxCell>
                <mxCell id="1031" value="" style="shape=note;whiteSpace=wrap;html=1;backgroundOutline=1;darkOpacity=0.05;fontFamily=Tahoma;fontColor=#FFFFFF;strokeColor=#FFFFFF;strokeWidth=2;size=13;rounded=1;fillColor=#EDF2F4;" parent="1" vertex="1">
                    <mxGeometry x="302.5" y="260" width="75" height="140" as="geometry"/>
                </mxCell>
                <mxCell id="1028" value="record" style="rounded=0;whiteSpace=wrap;html=1;strokeWidth=2;fillColor=#CAD9DF;fontStyle=1;fontSize=11;strokeColor=#FFFFFF;fontColor=#345253;fontFamily=Tahoma;" parent="1" vertex="1">
                    <mxGeometry x="310" y="280" width="60" height="30" as="geometry"/>
                </mxCell>
                <mxCell id="1029" value="record" style="rounded=0;whiteSpace=wrap;html=1;strokeWidth=2;fillColor=#CAD9DF;fontStyle=1;fontSize=11;strokeColor=#FFFFFF;fontColor=#345253;fontFamily=Tahoma;" parent="1" vertex="1">
                    <mxGeometry x="310" y="320" width="60" height="30" as="geometry"/>
                </mxCell>
                <mxCell id="1030" value="record" style="rounded=0;whiteSpace=wrap;html=1;strokeWidth=2;fillColor=#CAD9DF;fontStyle=1;fontSize=11;strokeColor=#FFFFFF;fontColor=#345253;fontFamily=Tahoma;" parent="1" vertex="1">
                    <mxGeometry x="310" y="360" width="60" height="30" as="geometry"/>
                </mxCell>
                <mxCell id="1032" value="&lt;font face=&quot;Tahoma&quot; color=&quot;#345253&quot;&gt;&lt;b&gt;Page 01&lt;/b&gt;&lt;/font&gt;" style="text;html=1;strokeColor=none;fillColor=none;align=center;verticalAlign=middle;whiteSpace=wrap;rounded=0;fontColor=#FFFFFF;" parent="1" vertex="1">
                    <mxGeometry x="310" y="400" width="60" height="20" as="geometry"/>
                </mxCell>
                <mxCell id="1033" value="" style="shape=note;whiteSpace=wrap;html=1;backgroundOutline=1;darkOpacity=0.05;fontFamily=Tahoma;fontColor=#FFFFFF;strokeColor=#FFFFFF;strokeWidth=2;size=13;rounded=1;fillColor=#EDF2F4;" parent="1" vertex="1">
                    <mxGeometry x="412.5" y="260" width="75" height="140" as="geometry"/>
                </mxCell>
                <mxCell id="1034" value="record" style="rounded=0;whiteSpace=wrap;html=1;strokeWidth=2;fillColor=#CAD9DF;fontStyle=1;fontSize=11;strokeColor=#FFFFFF;fontColor=#345253;fontFamily=Tahoma;" parent="1" vertex="1">
                    <mxGeometry x="420" y="280" width="60" height="30" as="geometry"/>
                </mxCell>
                <mxCell id="1035" value="record" style="rounded=0;whiteSpace=wrap;html=1;strokeWidth=2;fillColor=#CAD9DF;fontStyle=1;fontSize=11;strokeColor=#FFFFFF;fontColor=#345253;fontFamily=Tahoma;" parent="1" vertex="1">
                    <mxGeometry x="420" y="320" width="60" height="30" as="geometry"/>
                </mxCell>
                <mxCell id="1036" value="record" style="rounded=0;whiteSpace=wrap;html=1;strokeWidth=2;fillColor=#CAD9DF;fontStyle=1;fontSize=11;strokeColor=#FFFFFF;fontColor=#345253;fontFamily=Tahoma;" parent="1" vertex="1">
                    <mxGeometry x="420" y="360" width="60" height="30" as="geometry"/>
                </mxCell>
                <mxCell id="1037" value="&lt;font face=&quot;Tahoma&quot; color=&quot;#345253&quot;&gt;&lt;b&gt;Page 02&lt;/b&gt;&lt;/font&gt;" style="text;html=1;strokeColor=none;fillColor=none;align=center;verticalAlign=middle;whiteSpace=wrap;rounded=0;fontColor=#FFFFFF;" parent="1" vertex="1">
                    <mxGeometry x="420" y="400" width="60" height="20" as="geometry"/>
                </mxCell>
                <mxCell id="1038" value="" style="shape=note;whiteSpace=wrap;html=1;backgroundOutline=1;darkOpacity=0.05;fontFamily=Tahoma;fontColor=#FFFFFF;strokeColor=#FFFFFF;strokeWidth=2;size=13;rounded=1;fillColor=#EDF2F4;" parent="1" vertex="1">
                    <mxGeometry x="522.5" y="260" width="75" height="140" as="geometry"/>
                </mxCell>
                <mxCell id="1039" value="record" style="rounded=0;whiteSpace=wrap;html=1;strokeWidth=2;fillColor=#CAD9DF;fontStyle=1;fontSize=11;strokeColor=#FFFFFF;fontColor=#345253;fontFamily=Tahoma;" parent="1" vertex="1">
                    <mxGeometry x="530" y="280" width="60" height="30" as="geometry"/>
                </mxCell>
                <mxCell id="1040" value="record" style="rounded=0;whiteSpace=wrap;html=1;strokeWidth=2;fillColor=#CAD9DF;fontStyle=1;fontSize=11;strokeColor=#FFFFFF;fontColor=#345253;fontFamily=Tahoma;" parent="1" vertex="1">
                    <mxGeometry x="530" y="320" width="60" height="30" as="geometry"/>
                </mxCell>
                <mxCell id="1041" value="record" style="rounded=0;whiteSpace=wrap;html=1;strokeWidth=2;fillColor=#CAD9DF;fontStyle=1;fontSize=11;strokeColor=#FFFFFF;fontColor=#345253;fontFamily=Tahoma;" parent="1" vertex="1">
                    <mxGeometry x="530" y="360" width="60" height="30" as="geometry"/>
                </mxCell>
                <mxCell id="1042" value="&lt;font face=&quot;Tahoma&quot; color=&quot;#345253&quot;&gt;&lt;b&gt;Page 03&lt;/b&gt;&lt;/font&gt;" style="text;html=1;strokeColor=none;fillColor=none;align=center;verticalAlign=middle;whiteSpace=wrap;rounded=0;fontColor=#FFFFFF;" parent="1" vertex="1">
                    <mxGeometry x="530" y="400" width="60" height="20" as="geometry"/>
                </mxCell>
                <mxCell id="1043" value="" style="shape=note;whiteSpace=wrap;html=1;backgroundOutline=1;darkOpacity=0.05;fontFamily=Tahoma;fontColor=#FFFFFF;strokeColor=#FFFFFF;strokeWidth=2;size=13;rounded=1;fillColor=#EDF2F4;" parent="1" vertex="1">
                    <mxGeometry x="632.5" y="260" width="75" height="140" as="geometry"/>
                </mxCell>
                <mxCell id="1044" value="record" style="rounded=0;whiteSpace=wrap;html=1;strokeWidth=2;fillColor=#CAD9DF;fontStyle=1;fontSize=11;strokeColor=#FFFFFF;fontColor=#345253;fontFamily=Tahoma;" parent="1" vertex="1">
                    <mxGeometry x="640" y="280" width="60" height="30" as="geometry"/>
                </mxCell>
                <mxCell id="1045" value="record" style="rounded=0;whiteSpace=wrap;html=1;strokeWidth=2;fillColor=#CAD9DF;fontStyle=1;fontSize=11;strokeColor=#FFFFFF;fontColor=#345253;fontFamily=Tahoma;" parent="1" vertex="1">
                    <mxGeometry x="640" y="320" width="60" height="30" as="geometry"/>
                </mxCell>
                <mxCell id="1046" value="record" style="rounded=0;whiteSpace=wrap;html=1;strokeWidth=2;fillColor=#CAD9DF;fontStyle=1;fontSize=11;strokeColor=#FFFFFF;fontColor=#345253;fontFamily=Tahoma;" parent="1" vertex="1">
                    <mxGeometry x="640" y="360" width="60" height="30" as="geometry"/>
                </mxCell>
                <mxCell id="1047" value="&lt;font face=&quot;Tahoma&quot; color=&quot;#345253&quot;&gt;&lt;b&gt;Current Page&lt;/b&gt;&lt;/font&gt;" style="text;html=1;strokeColor=none;fillColor=none;align=center;verticalAlign=middle;whiteSpace=wrap;rounded=0;fontColor=#FFFFFF;" parent="1" vertex="1">
                    <mxGeometry x="625" y="400" width="90" height="20" as="geometry"/>
                </mxCell>
                <mxCell id="1123" style="edgeStyle=none;rounded=0;orthogonalLoop=1;jettySize=auto;html=1;entryX=1;entryY=0;entryDx=0;entryDy=0;fontFamily=Tahoma;fontSize=11;fontColor=#345253;endArrow=none;endFill=0;strokeColor=#999999;fillColor=#6E96A6;dashed=1;exitX=0;exitY=0;exitDx=0;exitDy=0;exitPerimeter=0;" parent="1" source="1077" target="1121" edge="1">
                    <mxGeometry relative="1" as="geometry"/>
                </mxCell>
                <mxCell id="1124" style="edgeStyle=none;rounded=0;orthogonalLoop=1;jettySize=auto;html=1;exitX=0;exitY=1;exitDx=0;exitDy=0;exitPerimeter=0;entryX=1;entryY=1;entryDx=0;entryDy=0;fontFamily=Tahoma;fontSize=11;fontColor=#345253;endArrow=none;endFill=0;strokeColor=#999999;fillColor=#6E96A6;dashed=1;" parent="1" source="1077" target="1122" edge="1">
                    <mxGeometry relative="1" as="geometry"/>
                </mxCell>
                <mxCell id="1145" style="edgeStyle=none;html=1;exitX=0.5;exitY=1;exitDx=0;exitDy=0;exitPerimeter=0;entryX=0.5;entryY=0;entryDx=0;entryDy=0;endArrow=oval;endFill=1;strokeColor=#999999;" edge="1" parent="1" source="1077" target="1135">
                    <mxGeometry relative="1" as="geometry"/>
                </mxCell>
                <mxCell id="1077" value="&lt;b&gt;&lt;font color=&quot;#345253&quot;&gt;temp&lt;/font&gt;&lt;/b&gt;" style="shape=note;whiteSpace=wrap;html=1;backgroundOutline=1;darkOpacity=0.05;fontFamily=Tahoma;fontColor=#FFFFFF;strokeColor=#FFFFFF;strokeWidth=2;size=13;rounded=1;fillColor=#EDF2F4;" parent="1" vertex="1">
                    <mxGeometry x="302.5" y="490" width="75" height="40" as="geometry"/>
                </mxCell>
                <mxCell id="1146" style="edgeStyle=none;html=1;exitX=0.5;exitY=1;exitDx=0;exitDy=0;exitPerimeter=0;entryX=0.5;entryY=0;entryDx=0;entryDy=0;endArrow=oval;endFill=1;strokeColor=#999999;" edge="1" parent="1" source="1078" target="1135">
                    <mxGeometry relative="1" as="geometry"/>
                </mxCell>
                <mxCell id="1078" value="&lt;b&gt;&lt;font color=&quot;#345253&quot;&gt;temp&lt;/font&gt;&lt;/b&gt;" style="shape=note;whiteSpace=wrap;html=1;backgroundOutline=1;darkOpacity=0.05;fontFamily=Tahoma;fontColor=#FFFFFF;strokeColor=#FFFFFF;strokeWidth=2;size=13;rounded=1;fillColor=#EDF2F4;" parent="1" vertex="1">
                    <mxGeometry x="465" y="490" width="75" height="40" as="geometry"/>
                </mxCell>
                <mxCell id="1147" style="edgeStyle=none;html=1;entryX=0.5;entryY=0;entryDx=0;entryDy=0;endArrow=oval;endFill=1;strokeColor=#999999;" edge="1" parent="1" source="1079" target="1135">
                    <mxGeometry relative="1" as="geometry"/>
                </mxCell>
                <mxCell id="1079" value="&lt;b&gt;&lt;font color=&quot;#345253&quot;&gt;temp&lt;/font&gt;&lt;/b&gt;" style="shape=note;whiteSpace=wrap;html=1;backgroundOutline=1;darkOpacity=0.05;fontFamily=Tahoma;fontColor=#FFFFFF;strokeColor=#FFFFFF;strokeWidth=2;size=13;rounded=1;fillColor=#EDF2F4;" parent="1" vertex="1">
                    <mxGeometry x="555" y="490" width="75" height="40" as="geometry"/>
                </mxCell>
                <mxCell id="1148" style="edgeStyle=none;html=1;exitX=0.5;exitY=1;exitDx=0;exitDy=0;exitPerimeter=0;entryX=0.5;entryY=0;entryDx=0;entryDy=0;endArrow=oval;endFill=1;strokeColor=#999999;" edge="1" parent="1" source="1080" target="1135">
                    <mxGeometry relative="1" as="geometry"/>
                </mxCell>
                <mxCell id="1080" value="&lt;b&gt;&lt;font color=&quot;#345253&quot;&gt;temp&lt;/font&gt;&lt;/b&gt;" style="shape=note;whiteSpace=wrap;html=1;backgroundOutline=1;darkOpacity=0.05;fontFamily=Tahoma;fontColor=#FFFFFF;strokeColor=#FFFFFF;strokeWidth=2;size=13;rounded=1;fillColor=#EDF2F4;" parent="1" vertex="1">
                    <mxGeometry x="645" y="490" width="75" height="40" as="geometry"/>
                </mxCell>
                <mxCell id="1149" style="edgeStyle=none;html=1;exitX=0.5;exitY=1;exitDx=0;exitDy=0;exitPerimeter=0;entryX=0.5;entryY=0;entryDx=0;entryDy=0;endArrow=oval;endFill=1;strokeColor=#999999;" edge="1" parent="1" source="1081" target="1135">
                    <mxGeometry relative="1" as="geometry"/>
                </mxCell>
                <mxCell id="1081" value="&lt;b&gt;&lt;font color=&quot;#345253&quot;&gt;temp&lt;/font&gt;&lt;/b&gt;" style="shape=note;whiteSpace=wrap;html=1;backgroundOutline=1;darkOpacity=0.05;fontFamily=Tahoma;fontColor=#FFFFFF;strokeColor=#FFFFFF;strokeWidth=2;size=13;rounded=1;fillColor=#EDF2F4;" parent="1" vertex="1">
                    <mxGeometry x="735" y="490" width="75" height="40" as="geometry"/>
                </mxCell>
                <mxCell id="1085" value="" style="shape=flexArrow;endArrow=classic;html=1;fontFamily=Tahoma;fontSize=11;fontColor=#345253;strokeColor=none;fillColor=#6E96A6;width=12;endSize=3.857142857142857;endWidth=10.857142857142858;" parent="1" edge="1">
                    <mxGeometry width="50" height="50" relative="1" as="geometry">
                        <mxPoint x="339.71" y="450" as="sourcePoint"/>
                        <mxPoint x="339.71" y="480" as="targetPoint"/>
                    </mxGeometry>
                </mxCell>
                <mxCell id="1086" value="&lt;i&gt;sort by array and write&lt;/i&gt;" style="text;html=1;strokeColor=none;fillColor=none;align=center;verticalAlign=middle;whiteSpace=wrap;rounded=0;dashed=1;sketch=1;fontFamily=Tahoma;fontSize=11;fontColor=#345253;" parent="1" vertex="1">
                    <mxGeometry x="352" y="441" width="77" height="40" as="geometry"/>
                </mxCell>
                <mxCell id="1091" value="&lt;b style=&quot;color: rgb(52 , 82 , 83) ; font-family: &amp;#34;tahoma&amp;#34; ; font-size: x-small&quot;&gt;……&lt;/b&gt;" style="whiteSpace=wrap;html=1;dashed=1;fontFamily=Verdana;fontColor=#FFFFFF;strokeColor=none;fillColor=#EDF2F4;rounded=1;" parent="1" vertex="1">
                    <mxGeometry x="485" y="694" width="150" height="40" as="geometry"/>
                </mxCell>
                <mxCell id="1095" style="edgeStyle=none;rounded=0;orthogonalLoop=1;jettySize=auto;html=1;exitX=0.5;exitY=1;exitDx=0;exitDy=0;entryX=0.5;entryY=0;entryDx=0;entryDy=0;entryPerimeter=0;fontFamily=Tahoma;fontSize=11;fontColor=#345253;endArrow=oval;endFill=1;strokeColor=#999999;fillColor=#6E96A6;dashed=1;" parent="1" source="1027" target="1031" edge="1">
                    <mxGeometry relative="1" as="geometry"/>
                </mxCell>
                <mxCell id="1096" style="edgeStyle=none;rounded=0;orthogonalLoop=1;jettySize=auto;html=1;exitX=0.5;exitY=1;exitDx=0;exitDy=0;entryX=0.5;entryY=0;entryDx=0;entryDy=0;entryPerimeter=0;dashed=1;fontFamily=Tahoma;fontSize=11;fontColor=#345253;endArrow=oval;endFill=1;strokeColor=#999999;fillColor=#6E96A6;" parent="1" source="1027" target="1033" edge="1">
                    <mxGeometry relative="1" as="geometry"/>
                </mxCell>
                <mxCell id="1097" style="edgeStyle=none;rounded=0;orthogonalLoop=1;jettySize=auto;html=1;exitX=0.5;exitY=1;exitDx=0;exitDy=0;entryX=0.5;entryY=0;entryDx=0;entryDy=0;entryPerimeter=0;dashed=1;fontFamily=Tahoma;fontSize=11;fontColor=#345253;endArrow=oval;endFill=1;strokeColor=#999999;fillColor=#6E96A6;" parent="1" source="1027" target="1038" edge="1">
                    <mxGeometry relative="1" as="geometry"/>
                </mxCell>
                <mxCell id="1094" style="edgeStyle=none;rounded=0;orthogonalLoop=1;jettySize=auto;html=1;exitX=0.5;exitY=1;exitDx=0;exitDy=0;entryX=0.5;entryY=0;entryDx=0;entryDy=0;fontFamily=Tahoma;fontSize=11;fontColor=#345253;endArrow=oval;endFill=1;strokeColor=#999999;fillColor=#6E96A6;" parent="1" source="1027" target="1100" edge="1">
                    <mxGeometry relative="1" as="geometry"/>
                </mxCell>
                <mxCell id="1101" value="" style="shape=flexArrow;endArrow=classic;html=1;fontFamily=Tahoma;fontSize=11;fontColor=#345253;strokeColor=none;fillColor=#6E96A6;width=12;endSize=3.857142857142857;endWidth=10.857142857142858;" parent="1" edge="1">
                    <mxGeometry width="50" height="50" relative="1" as="geometry">
                        <mxPoint x="502.16" y="450" as="sourcePoint"/>
                        <mxPoint x="502.16" y="480" as="targetPoint"/>
                    </mxGeometry>
                </mxCell>
                <mxCell id="1102" value="" style="shape=flexArrow;endArrow=classic;html=1;fontFamily=Tahoma;fontSize=11;fontColor=#345253;strokeColor=none;fillColor=#6E96A6;width=12;endSize=3.857142857142857;endWidth=10.857142857142858;" parent="1" edge="1">
                    <mxGeometry width="50" height="50" relative="1" as="geometry">
                        <mxPoint x="592.1599999999999" y="450" as="sourcePoint"/>
                        <mxPoint x="592.1599999999999" y="480" as="targetPoint"/>
                    </mxGeometry>
                </mxCell>
                <mxCell id="1103" value="" style="shape=flexArrow;endArrow=classic;html=1;fontFamily=Tahoma;fontSize=11;fontColor=#345253;strokeColor=none;fillColor=#6E96A6;width=12;endSize=3.857142857142857;endWidth=10.857142857142858;" parent="1" edge="1">
                    <mxGeometry width="50" height="50" relative="1" as="geometry">
                        <mxPoint x="682.1599999999999" y="450" as="sourcePoint"/>
                        <mxPoint x="682.1599999999999" y="480" as="targetPoint"/>
                    </mxGeometry>
                </mxCell>
                <mxCell id="1104" value="" style="shape=flexArrow;endArrow=classic;html=1;fontFamily=Tahoma;fontSize=11;fontColor=#345253;strokeColor=none;fillColor=#6E96A6;width=12;endSize=3.857142857142857;endWidth=10.857142857142858;" parent="1" edge="1">
                    <mxGeometry width="50" height="50" relative="1" as="geometry">
                        <mxPoint x="772.1600000000001" y="450" as="sourcePoint"/>
                        <mxPoint x="772.1600000000001" y="480" as="targetPoint"/>
                    </mxGeometry>
                </mxCell>
                <mxCell id="1113" value="&lt;i&gt;sort by array and write&lt;/i&gt;&lt;i&gt;&lt;br&gt;(if spill)&lt;br&gt;&lt;/i&gt;" style="text;html=1;strokeColor=none;fillColor=none;align=center;verticalAlign=middle;whiteSpace=wrap;rounded=0;dashed=1;sketch=1;fontFamily=Tahoma;fontSize=11;fontColor=#345253;" parent="1" vertex="1">
                    <mxGeometry x="796" y="441" width="77" height="40" as="geometry"/>
                </mxCell>
                <mxCell id="1117" value="&lt;font face=&quot;Tahoma&quot; color=&quot;#345253&quot;&gt;&lt;b&gt;Pointer Array&lt;/b&gt;&lt;/font&gt;" style="text;html=1;strokeColor=none;fillColor=none;align=center;verticalAlign=middle;whiteSpace=wrap;rounded=0;fontColor=#FFFFFF;" parent="1" vertex="1">
                    <mxGeometry x="730" y="400" width="90" height="20" as="geometry"/>
                </mxCell>
                <mxCell id="1118" style="edgeStyle=none;rounded=0;orthogonalLoop=1;jettySize=auto;html=1;exitX=0;exitY=0.5;exitDx=0;exitDy=0;entryX=1;entryY=0.5;entryDx=0;entryDy=0;fontFamily=Tahoma;fontSize=11;fontColor=#345253;endArrow=block;endFill=1;strokeColor=#999999;fillColor=#6E96A6;" parent="1" source="1048" target="1046" edge="1">
                    <mxGeometry relative="1" as="geometry"/>
                </mxCell>
                <mxCell id="1022" value="&lt;b style=&quot;font-family: &amp;#34;tahoma&amp;#34;&quot;&gt;……&lt;/b&gt;" style="rounded=0;whiteSpace=wrap;html=1;strokeWidth=2;strokeColor=#FFFFFF;fontSize=11;fontColor=#345253;fillColor=#EDF2F4;" parent="1" vertex="1">
                    <mxGeometry x="740" y="330" width="70" height="30" as="geometry"/>
                </mxCell>
                <mxCell id="1023" value="&lt;font face=&quot;Tahoma&quot; style=&quot;font-size: 11px;&quot;&gt;&lt;b style=&quot;font-size: 11px;&quot;&gt;pointer 01&lt;/b&gt;&lt;/font&gt;" style="rounded=0;whiteSpace=wrap;html=1;strokeWidth=2;strokeColor=#FFFFFF;fontSize=11;fontColor=#345253;fillColor=#EDF2F4;" parent="1" vertex="1">
                    <mxGeometry x="740" y="270" width="70" height="30" as="geometry"/>
                </mxCell>
                <mxCell id="1128" style="edgeStyle=none;rounded=0;orthogonalLoop=1;jettySize=auto;html=1;exitX=1;exitY=0;exitDx=0;exitDy=0;entryX=0;entryY=0;entryDx=0;entryDy=0;dashed=1;fontFamily=Tahoma;fontSize=11;fontColor=#345253;endArrow=none;endFill=0;strokeColor=#999999;fillColor=#6E96A6;" parent="1" source="1048" target="1126" edge="1">
                    <mxGeometry relative="1" as="geometry"/>
                </mxCell>
                <mxCell id="1129" style="edgeStyle=none;rounded=0;orthogonalLoop=1;jettySize=auto;html=1;exitX=1;exitY=1;exitDx=0;exitDy=0;entryX=0;entryY=1;entryDx=0;entryDy=0;dashed=1;fontFamily=Tahoma;fontSize=11;fontColor=#345253;endArrow=none;endFill=0;strokeColor=#999999;fillColor=#6E96A6;" parent="1" source="1048" target="1127" edge="1">
                    <mxGeometry relative="1" as="geometry"/>
                </mxCell>
                <mxCell id="1048" value="&lt;b style=&quot;font-family: &amp;#34;tahoma&amp;#34;&quot;&gt;pointer&amp;nbsp;&lt;i&gt;n&lt;/i&gt;&lt;/b&gt;" style="rounded=0;whiteSpace=wrap;html=1;strokeWidth=2;strokeColor=#FFFFFF;fontSize=11;fontColor=#345253;fillColor=#EDF2F4;" parent="1" vertex="1">
                    <mxGeometry x="740" y="360" width="70" height="30" as="geometry"/>
                </mxCell>
                <mxCell id="1082" value="&lt;font face=&quot;Tahoma&quot; style=&quot;font-size: 11px&quot;&gt;&lt;b style=&quot;font-size: 11px&quot;&gt;pointer 02&lt;/b&gt;&lt;/font&gt;" style="rounded=0;whiteSpace=wrap;html=1;strokeWidth=2;strokeColor=#FFFFFF;fontSize=11;fontColor=#345253;fillColor=#EDF2F4;" parent="1" vertex="1">
                    <mxGeometry x="740" y="300" width="70" height="30" as="geometry"/>
                </mxCell>
                <mxCell id="1120" value="&lt;font face=&quot;Tahoma&quot; size=&quot;1&quot;&gt;&lt;b&gt;……&lt;/b&gt;&lt;/font&gt;" style="rounded=0;whiteSpace=wrap;html=1;strokeWidth=2;strokeColor=#FFFFFF;fontSize=11;fontColor=#345253;fillColor=#EDF2F4;" parent="1" vertex="1">
                    <mxGeometry x="199" y="495" width="70" height="30" as="geometry"/>
                </mxCell>
                <mxCell id="1121" value="&lt;font face=&quot;Tahoma&quot; size=&quot;1&quot;&gt;&lt;b style=&quot;font-size: 9px&quot;&gt;Partition 01&lt;/b&gt;&lt;/font&gt;" style="rounded=0;whiteSpace=wrap;html=1;strokeWidth=2;strokeColor=#FFFFFF;fontSize=11;fontColor=#345253;fillColor=#EDF2F4;" parent="1" vertex="1">
                    <mxGeometry x="199" y="465" width="70" height="30" as="geometry"/>
                </mxCell>
                <mxCell id="1122" value="&lt;font face=&quot;Tahoma&quot; size=&quot;1&quot;&gt;&lt;b style=&quot;font-size: 9px&quot;&gt;Partition &lt;i&gt;n&lt;/i&gt;&lt;/b&gt;&lt;/font&gt;" style="rounded=0;whiteSpace=wrap;html=1;strokeWidth=2;strokeColor=#FFFFFF;fontSize=11;fontColor=#345253;fillColor=#EDF2F4;" parent="1" vertex="1">
                    <mxGeometry x="199" y="525" width="70" height="30" as="geometry"/>
                </mxCell>
                <mxCell id="1125" value="&lt;font face=&quot;Tahoma&quot; size=&quot;1&quot;&gt;&lt;b style=&quot;font-size: 9px&quot;&gt;pageNumber&lt;/b&gt;&lt;/font&gt;" style="rounded=0;whiteSpace=wrap;html=1;strokeWidth=2;strokeColor=#FFFFFF;fontSize=11;fontColor=#345253;fillColor=#EDF2F4;" parent="1" vertex="1">
                    <mxGeometry x="855" y="360" width="70" height="30" as="geometry"/>
                </mxCell>
                <mxCell id="1126" value="&lt;font face=&quot;Tahoma&quot; size=&quot;1&quot;&gt;&lt;b style=&quot;font-size: 9px&quot;&gt;partitionId&lt;/b&gt;&lt;/font&gt;" style="rounded=0;whiteSpace=wrap;html=1;strokeWidth=2;strokeColor=#FFFFFF;fontSize=11;fontColor=#345253;fillColor=#EDF2F4;" parent="1" vertex="1">
                    <mxGeometry x="855" y="330" width="70" height="30" as="geometry"/>
                </mxCell>
                <mxCell id="1127" value="&lt;font face=&quot;Tahoma&quot; size=&quot;1&quot;&gt;&lt;b style=&quot;font-size: 9px&quot;&gt;offset&lt;/b&gt;&lt;/font&gt;" style="rounded=0;whiteSpace=wrap;html=1;strokeWidth=2;strokeColor=#FFFFFF;fontSize=11;fontColor=#345253;fillColor=#EDF2F4;" parent="1" vertex="1">
                    <mxGeometry x="855" y="390" width="70" height="30" as="geometry"/>
                </mxCell>
                <mxCell id="1142" value="&lt;font style=&quot;font-size: 12px&quot; color=&quot;#345253&quot;&gt;&lt;b&gt;DataFile&lt;/b&gt;&lt;/font&gt;" style="text;html=1;strokeColor=none;fillColor=none;align=center;verticalAlign=middle;whiteSpace=wrap;rounded=0;fontFamily=Tahoma;fontSize=10;fontColor=#FFFFFF;" vertex="1" parent="1">
                    <mxGeometry x="260" y="586.5" width="61.75" height="20" as="geometry"/>
                </mxCell>
                <mxCell id="1143" value="&lt;font style=&quot;font-size: 12px&quot; color=&quot;#345253&quot;&gt;&lt;b&gt;IndexFile&lt;/b&gt;&lt;/font&gt;" style="text;html=1;strokeColor=none;fillColor=none;align=center;verticalAlign=middle;whiteSpace=wrap;rounded=0;fontFamily=Tahoma;fontSize=10;fontColor=#FFFFFF;" vertex="1" parent="1">
                    <mxGeometry x="260" y="616.5" width="61.75" height="20" as="geometry"/>
                </mxCell>
                <mxCell id="1136" value="&lt;font style=&quot;font-size: 10px;&quot;&gt;&lt;b style=&quot;font-size: 10px;&quot;&gt;Partition 01&lt;/b&gt;&lt;/font&gt;" style="rounded=0;whiteSpace=wrap;html=1;strokeWidth=2;strokeColor=#FFFFFF;fontSize=10;fontColor=#345253;fontFamily=Tahoma;fillColor=#FFD966;" vertex="1" parent="1">
                    <mxGeometry x="350" y="581.5" width="140" height="30" as="geometry"/>
                </mxCell>
                <mxCell id="1137" value="&lt;b style=&quot;font-family: &amp;#34;tahoma&amp;#34; ; font-size: x-small&quot;&gt;……&lt;/b&gt;" style="rounded=0;whiteSpace=wrap;html=1;strokeWidth=2;strokeColor=#FFFFFF;fontSize=10;fontColor=#345253;fontFamily=Tahoma;fillColor=#FFD966;" vertex="1" parent="1">
                    <mxGeometry x="490.0000000000001" y="581.5" width="140" height="30" as="geometry"/>
                </mxCell>
                <mxCell id="1138" value="&lt;b style=&quot;font-size: 10px&quot;&gt;Partition &lt;i&gt;n&lt;/i&gt;&lt;/b&gt;" style="rounded=0;whiteSpace=wrap;html=1;strokeWidth=2;strokeColor=#FFFFFF;fontSize=10;fontColor=#345253;fontFamily=Tahoma;fillColor=#FFD966;" vertex="1" parent="1">
                    <mxGeometry x="630.0000000000001" y="581.5" width="140" height="30" as="geometry"/>
                </mxCell>
                <mxCell id="1150" style="edgeStyle=none;html=1;exitX=0.5;exitY=1;exitDx=0;exitDy=0;entryX=0.5;entryY=0;entryDx=0;entryDy=0;endArrow=oval;endFill=1;strokeColor=#999999;" edge="1" parent="1" source="1139" target="1130">
                    <mxGeometry relative="1" as="geometry"/>
                </mxCell>
                <mxCell id="1139" value="&lt;font style=&quot;font-size: 10px&quot;&gt;&lt;b style=&quot;font-size: 10px&quot;&gt;Index 01&lt;/b&gt;&lt;/font&gt;" style="rounded=0;whiteSpace=wrap;html=1;strokeWidth=2;strokeColor=#FFFFFF;fontSize=10;fontColor=#345253;fillColor=#CAD9DF;fontFamily=Tahoma;" vertex="1" parent="1">
                    <mxGeometry x="350" y="611.5" width="140" height="30" as="geometry"/>
                </mxCell>
                <mxCell id="1151" style="edgeStyle=none;html=1;exitX=0.5;exitY=1;exitDx=0;exitDy=0;endArrow=oval;endFill=1;strokeColor=#999999;" edge="1" parent="1" source="1140" target="1091">
                    <mxGeometry relative="1" as="geometry"/>
                </mxCell>
                <mxCell id="1140" value="&lt;b style=&quot;font-family: &amp;#34;tahoma&amp;#34; ; font-size: x-small&quot;&gt;……&lt;/b&gt;" style="rounded=0;whiteSpace=wrap;html=1;strokeWidth=2;strokeColor=#FFFFFF;fontSize=10;fontColor=#345253;fillColor=#CAD9DF;fontFamily=Tahoma;" vertex="1" parent="1">
                    <mxGeometry x="490.0000000000001" y="611.5" width="140" height="30" as="geometry"/>
                </mxCell>
                <mxCell id="1152" style="edgeStyle=none;html=1;exitX=0.5;exitY=1;exitDx=0;exitDy=0;entryX=0.5;entryY=0;entryDx=0;entryDy=0;endArrow=oval;endFill=1;strokeColor=#999999;" edge="1" parent="1" source="1141" target="1131">
                    <mxGeometry relative="1" as="geometry"/>
                </mxCell>
                <mxCell id="1141" value="&lt;b&gt;Index&lt;/b&gt;&lt;b style=&quot;font-size: 10px&quot;&gt;&amp;nbsp;&lt;i&gt;n&lt;/i&gt;&lt;/b&gt;" style="rounded=0;whiteSpace=wrap;html=1;strokeWidth=2;strokeColor=#FFFFFF;fontSize=10;fontColor=#345253;fillColor=#CAD9DF;fontFamily=Tahoma;" vertex="1" parent="1">
                    <mxGeometry x="630.0000000000001" y="611.5" width="140" height="30" as="geometry"/>
                </mxCell>
            </root>
        </mxGraphModel>
    </diagram>
</mxfile>